<svg width="141" height="41" viewBox="0 0 141 41" fill="none" xmlns="http://www.w3.org/2000/svg">
<path d="M47.3999 19.7372C47.3188 17.2002 46.8292 14.692 45.9496 12.3068C44.5136 8.44703 42.0664 5.03217 38.8575 2.41043C37.9904 1.69914 37.0744 1.04798 36.1161 0.461628C35.6657 0.187299 35.1494 0.0364913 34.6204 0.0247575C34.0913 0.0130237 33.5687 0.140797 33.1063 0.394883C32.6439 0.64897 32.2586 1.02018 31.99 1.47025C31.7214 1.92033 31.5792 2.43298 31.5782 2.95535C31.5777 3.45143 31.7066 3.93929 31.9524 4.37198C32.1982 4.80468 32.5527 5.16765 32.9817 5.42599C33.7133 5.8725 34.412 6.3694 35.0728 6.91299C38.4442 9.67023 40.6609 13.5629 41.2948 17.8392C41.3931 18.4833 41.4541 19.1324 41.4773 19.7834C41.636 24.1017 40.1752 28.326 37.3745 31.6471L35.4752 33.896C35.2304 34.2045 34.9253 34.4613 34.5782 34.6512C34.231 34.8412 33.8487 34.9604 33.454 35.0018C33.0593 35.0433 32.6602 35.0061 32.2803 34.8925C31.9004 34.7789 31.5475 34.5912 31.2425 34.3404C30.9374 34.0897 30.6865 33.7811 30.5045 33.4329C30.3225 33.0847 30.2131 32.7039 30.1829 32.3132C30.1527 31.9225 30.2023 31.5298 30.3287 31.1584C30.455 30.7869 30.6556 30.4443 30.9186 30.1508L32.8133 27.9019C34.1454 26.3269 35.0329 24.4329 35.3863 22.411C35.695 20.6358 35.5878 18.8144 35.0728 17.0865C34.998 16.8371 34.9138 16.5923 34.8202 16.3522C34.1033 14.4249 32.8813 12.7198 31.2788 11.4109C29.6821 10.0923 27.7594 9.21575 25.7071 8.87102C24.8435 8.72741 23.9665 8.67787 23.0919 8.72325C23.0813 6.92173 22.5092 5.16709 21.4533 3.69769C20.3974 2.22829 18.9088 1.11534 17.1899 0.510052C15.471 -0.0952377 13.6049 -0.163526 11.8453 0.31444C10.0856 0.792406 8.5177 1.79347 7.35445 3.18164L5.48316 5.43061C2.81088 8.5843 1.03501 12.382 0.337138 16.4353C-0.358682 20.4882 0.026666 24.6502 1.45524 28.5114C2.89173 32.3698 5.33701 35.7841 8.54273 38.4078C9.41064 39.1202 10.3283 39.7714 11.2888 40.3566C11.9547 40.7357 12.7437 40.8448 13.4895 40.6609C14.2353 40.4769 14.8796 40.0143 15.2866 39.3706C15.6937 38.7269 15.8316 37.9524 15.6714 37.2102C15.5112 36.468 15.0654 35.8163 14.4279 35.3923C13.696 34.9462 12.9972 34.4493 12.3367 33.9053C8.96883 31.1458 6.75424 27.2539 6.11942 22.9791C6.02111 22.335 5.96019 21.6858 5.93696 21.0349C5.7679 16.7192 7.21704 12.4935 10.007 9.16658L11.9064 6.91761C12.1511 6.60916 12.4562 6.35236 12.8033 6.16241C13.1505 5.97246 13.5328 5.85323 13.9275 5.81179C14.3222 5.77034 14.7213 5.80753 15.1012 5.92115C15.4811 6.03476 15.834 6.22249 16.139 6.47322C16.4441 6.72394 16.695 7.03254 16.877 7.38075C17.059 7.72897 17.1683 8.10971 17.1986 8.5004C17.2288 8.89109 17.1792 9.2838 17.0528 9.65524C16.9265 10.0267 16.7259 10.3693 16.4629 10.6628L14.5916 12.9118C13.2517 14.484 12.3574 16.3785 11.9999 18.4026C11.9999 18.4626 11.9999 18.5227 11.9718 18.5827C11.6614 20.5557 11.8659 22.5743 12.566 24.4476C13.2868 26.3741 14.5082 28.0795 16.1078 29.3926C17.7074 30.7058 19.6288 31.5804 21.6791 31.9287C22.5445 32.0702 23.4228 32.1197 24.2989 32.0765C24.3095 33.878 24.8816 35.6327 25.9376 37.1021C26.9935 38.5715 28.482 39.6844 30.201 40.2897C31.9199 40.895 33.7859 40.9633 35.5456 40.4853C37.3052 40.0074 38.8732 39.0063 40.0364 37.6181L41.9077 35.3692C45.607 30.9869 47.5554 25.4206 47.3859 19.7187L47.3999 19.7372ZM23.6861 26.2532C22.5156 26.2532 21.3715 25.9106 20.3983 25.2687C19.4251 24.6268 18.6665 23.7144 18.2186 22.647C17.7707 21.5795 17.6535 20.405 17.8819 19.2718C18.1102 18.1386 18.6738 17.0977 19.5014 16.2807C20.3291 15.4637 21.3836 14.9073 22.5315 14.6819C23.6795 14.4565 24.8694 14.5722 25.9508 15.0143C27.0321 15.4565 27.9564 16.2052 28.6066 17.1659C29.2569 18.1266 29.604 19.256 29.604 20.4114C29.604 21.9608 28.9805 23.4466 27.8707 24.5422C26.7609 25.6377 25.2556 26.2532 23.6861 26.2532Z" fill="#2A9FE8"/>
<path d="M71.2708 13.161C65.8909 12.5006 64.595 11.5954 64.595 9.78519C64.595 7.8918 66.3914 6.48792 69.9375 6.48792C73.4836 6.48792 76.1127 7.23142 79.7383 9.29106L82.1196 4.76079C78.5206 2.4034 74.2741 1.19584 69.9562 1.3019C63.8746 1.3019 57.98 4.2251 58.0642 9.86831C58.1063 14.6433 61.484 16.8276 69.1188 18.0191C74.9619 18.8873 76.0473 19.7924 76.0473 21.6858C76.0473 23.5792 74.5876 24.9184 70.5831 24.9184C66.4101 24.9184 62.9062 23.4776 59.9028 21.4595L57.3999 25.5742C60.4828 28.3773 65.8675 30.0213 70.5831 30.0213C77.1326 30.0213 82.6809 27.0981 82.6388 21.4595C82.578 16.001 78.1384 14.0245 71.2708 13.161Z" fill="#051128"/>
<path d="M113.379 1.67133V6.85735H123.508V29.6749H129.847V6.85735H140.186V1.67133H113.379Z" fill="#051128"/>
<path d="M104.702 4.54838C104.31 3.5905 103.638 2.76999 102.77 2.19219C101.903 1.61439 100.88 1.30566 99.834 1.30566C98.7876 1.30566 97.7651 1.61439 96.8978 2.19219C96.0304 2.76999 95.3578 3.5905 94.9663 4.54838L84.7444 29.675H91.8366L93.75 24.3596H105.913L107.817 29.675H114.909L104.702 4.54838ZM95.6072 19.2198L99.855 7.42539L104.065 19.2198H95.6072Z" fill="#051128"/>
<path d="M58.0221 36.5864C58.0266 36.6983 58.0557 36.8079 58.1074 36.9076C58.1591 37.0073 58.2322 37.0947 58.3215 37.1636C58.5212 37.3377 58.7804 37.4301 59.0466 37.4223C59.2879 37.4366 59.5265 37.3662 59.7203 37.2237C59.8754 37.0999 59.9786 36.9239 60.0103 36.7296C60.0243 36.6283 60.0128 36.5253 59.9769 36.4294C59.941 36.3336 59.8818 36.2479 59.8045 36.18C59.6332 36.0325 59.4247 35.9336 59.201 35.8937L58.5835 35.7413C57.8069 35.5473 57.4186 35.1363 57.4186 34.5129C57.4164 34.3287 57.4575 34.1465 57.5387 33.9807C57.6199 33.8148 57.7389 33.6698 57.8865 33.557C58.1912 33.308 58.5763 33.1753 58.9718 33.1829C59.3756 33.1689 59.7698 33.3058 60.0759 33.5662C60.2188 33.6902 60.332 33.844 60.4073 34.0166C60.4826 34.1891 60.518 34.376 60.5109 34.5637H59.8653C59.8687 34.4578 59.8477 34.3525 59.8039 34.2557C59.7602 34.1589 59.6948 34.0732 59.6127 34.0049C59.4302 33.8601 59.2011 33.7847 58.9671 33.7925C58.7418 33.7895 58.5217 33.8592 58.3402 33.9911C58.257 34.0488 58.1892 34.1256 58.1428 34.2149C58.0963 34.3042 58.0726 34.4033 58.0736 34.5037C58.0736 34.8315 58.2981 35.0486 58.7519 35.1594L59.3741 35.3118C59.7597 35.3864 60.1126 35.5767 60.3846 35.8567C60.4947 35.9821 60.5756 36.1298 60.6217 36.2894C60.6677 36.4489 60.6778 36.6165 60.6513 36.7803C60.633 36.9522 60.5802 37.1188 60.4958 37.2703C60.4115 37.4218 60.2973 37.5551 60.1601 37.6624C59.8459 37.9051 59.4546 38.0295 59.056 38.0134C58.6187 38.0267 58.193 37.8728 57.8677 37.5839C57.7209 37.4602 57.6031 37.3066 57.5223 37.1336C57.4415 36.9606 57.3998 36.7723 57.3999 36.5818L58.0221 36.5864Z" fill="#051128"/>
<path d="M62.0312 34.7577V35.2564C62.1399 35.0734 62.3033 34.9282 62.4991 34.8408C62.7022 34.74 62.9266 34.6878 63.154 34.6884C63.3676 34.6839 63.5799 34.7225 63.7778 34.8019C63.9757 34.8814 64.155 34.9999 64.3048 35.1502C64.4622 35.3098 64.5848 35.4994 64.6653 35.7075C64.7457 35.9155 64.7823 36.1376 64.7727 36.3601C64.7814 36.5804 64.7445 36.8002 64.664 37.0059C64.5836 37.2116 64.4613 37.3988 64.3048 37.5562C64.1552 37.7067 63.9759 37.8254 63.7779 37.9048C63.58 37.9843 63.3676 38.0228 63.154 38.018C62.9245 38.0201 62.6974 37.9711 62.4897 37.8748C62.2928 37.7936 62.1285 37.6509 62.0219 37.4684V39.5004H61.3903V34.7577H62.0312ZM62.0312 36.3694C62.0243 36.5116 62.0492 36.6537 62.1042 36.7854C62.1592 36.9171 62.2429 37.0352 62.3493 37.1313C62.5536 37.312 62.8189 37.4109 63.0932 37.4084C63.2309 37.4119 63.368 37.3883 63.4965 37.3392C63.6249 37.29 63.7423 37.2162 63.8417 37.1221C63.9403 37.0231 64.0173 36.9053 64.068 36.7758C64.1187 36.6464 64.142 36.5081 64.1364 36.3694C64.1423 36.2275 64.1188 36.0859 64.0673 35.9533C64.0158 35.8207 63.9374 35.6998 63.837 35.5981C63.7409 35.4999 63.6252 35.4224 63.4971 35.3708C63.369 35.3191 63.2315 35.2943 63.0932 35.298C62.9544 35.2951 62.8164 35.3193 62.6871 35.3692C62.5579 35.4191 62.4399 35.4938 62.34 35.5889C62.2384 35.689 62.1589 35.8088 62.1066 35.9407C62.0542 36.0727 62.0302 36.2139 62.0359 36.3555L62.0312 36.3694Z" fill="#051128"/>
<path d="M68.5947 36.3555C68.5947 36.4756 68.5947 36.5587 68.5947 36.6003H65.9749C66.0025 36.8476 66.1267 37.0745 66.3211 37.2329C66.5187 37.3921 66.7678 37.4757 67.0228 37.4684C67.2133 37.4707 67.4014 37.4263 67.5701 37.3391C67.7288 37.2573 67.8603 37.1323 67.9491 36.9789L68.2251 37.0851L68.4918 37.1821C68.3637 37.4497 68.1522 37.6698 67.8883 37.8102C67.6165 37.9589 67.3102 38.0353 66.9994 38.0318C66.7815 38.0374 66.5647 37.9994 66.3621 37.92C66.1595 37.8407 65.9752 37.7216 65.8205 37.57C65.6632 37.4104 65.5405 37.2208 65.46 37.0127C65.3796 36.8047 65.3431 36.5826 65.3527 36.3601C65.3415 36.1421 65.3764 35.9241 65.4551 35.7201C65.5339 35.516 65.6547 35.3304 65.81 35.1749C65.9653 35.0194 66.1516 34.8976 66.3572 34.817C66.5628 34.7364 66.7831 34.6989 67.0041 34.7069C67.2185 34.7017 67.4316 34.74 67.6304 34.8195C67.8291 34.8989 68.0093 35.0177 68.1596 35.1687C68.4575 35.4922 68.6138 35.9187 68.5947 36.3555ZM65.9608 36.1153H67.9725C67.9545 35.8736 67.8409 35.6485 67.6562 35.4886C67.4715 35.3288 67.2306 35.247 66.9854 35.261C66.7356 35.2546 66.4917 35.3365 66.2977 35.4919C66.1146 35.6465 65.999 35.8649 65.9749 36.1015L65.9608 36.1153Z" fill="#051128"/>
<path d="M72.3747 36.3555C72.3747 36.4755 72.3747 36.5587 72.3747 36.6002H69.7503C69.7778 36.8476 69.902 37.0745 70.0964 37.2329C70.2941 37.3921 70.5432 37.4756 70.7982 37.4684C70.9886 37.4707 71.1767 37.4263 71.3455 37.3391C71.5041 37.2573 71.6356 37.1323 71.7244 36.9789L72.0005 37.0851L72.2624 37.1821C72.1356 37.449 71.9258 37.669 71.6636 37.8102C71.3916 37.9583 71.0855 38.0346 70.7748 38.0318C70.5569 38.0374 70.3401 37.9994 70.1374 37.92C69.9348 37.8407 69.7506 37.7216 69.5959 37.57C69.4376 37.4111 69.3143 37.2216 69.2338 37.0133C69.1533 36.8051 69.1173 36.5827 69.128 36.3601C69.1175 36.1389 69.1536 35.9179 69.2341 35.7112C69.3147 35.5045 69.4379 35.3166 69.5959 35.1594C69.7515 35.0091 69.9359 34.8909 70.1383 34.8116C70.3407 34.7323 70.5571 34.6936 70.7748 34.6976C70.9891 34.6924 71.2023 34.7308 71.401 34.8102C71.5998 34.8897 71.7799 35.0085 71.9303 35.1594C72.0806 35.32 72.1973 35.5084 72.2736 35.7136C72.3498 35.9189 72.3842 36.137 72.3747 36.3555ZM69.7409 36.1153H71.7479C71.7285 35.8744 71.6143 35.6506 71.4297 35.4919C71.245 35.3362 71.0082 35.2538 70.7654 35.261C70.5156 35.2546 70.2717 35.3365 70.0777 35.4919C69.8894 35.6441 69.7686 35.8628 69.7409 36.1015V36.1153Z" fill="#051128"/>
<path d="M75.6588 37.9487V37.4546C75.5506 37.6379 75.387 37.7833 75.1909 37.8702C74.9833 37.9675 74.7564 38.018 74.5266 38.018C74.3117 38.0224 74.098 37.9838 73.8986 37.9044C73.6992 37.825 73.5181 37.7065 73.3664 37.5562C73.064 37.2266 72.8965 36.7978 72.8965 36.3532C72.8965 35.9085 73.064 35.4797 73.3664 35.1502C73.5174 35.0002 73.6977 34.8819 73.8963 34.8025C74.0949 34.7232 74.3077 34.6843 74.5219 34.6884C74.7556 34.6856 74.987 34.7328 75.2003 34.8269C75.3943 34.9124 75.5575 35.0542 75.6681 35.2333V33.0213H76.2997V37.9487H75.6588ZM75.3406 37.1175C75.4458 37.0177 75.5282 36.8968 75.5823 36.763C75.6363 36.6292 75.6608 36.4855 75.6541 36.3416C75.6612 36.1978 75.6355 36.0542 75.5788 35.9215C75.5221 35.7888 75.4359 35.6704 75.3266 35.575C75.1223 35.3943 74.857 35.2955 74.5828 35.298C74.4435 35.2948 74.305 35.3196 74.1757 35.3711C74.0465 35.4225 73.9293 35.4994 73.8312 35.5971C73.7331 35.6948 73.6562 35.8112 73.6053 35.9392C73.5543 36.0672 73.5303 36.2042 73.5348 36.3416C73.5308 36.483 73.5556 36.6238 73.6078 36.7555C73.6601 36.8872 73.7387 37.0072 73.8389 37.1082C73.935 37.2065 74.0508 37.2839 74.1788 37.3356C74.3069 37.3873 74.4445 37.4121 74.5828 37.4084C74.8611 37.4111 75.1295 37.3068 75.3313 37.1175H75.3406Z" fill="#051128"/>
<path d="M84.9097 36.7565H82.8887L82.4209 37.9526H81.7332L83.5483 33.2422H84.2407L86.0465 37.9526H85.3728L84.9097 36.7565ZM83.1085 36.1839H84.6851L83.8992 34.092L83.1085 36.1839Z" fill="#051128"/>
<path d="M90.894 33.0252V33.6209H90.5431C90.1314 33.6209 89.9303 33.8933 89.9396 34.4383V34.7615H90.6881V35.288H89.9396V37.9526H89.3034V35.288H87.4321V37.9526H86.7912V35.288H86.169V34.7615H86.7912V34.4383C86.77 34.0672 86.8791 33.7002 87.1 33.3992C87.2153 33.2688 87.3601 33.167 87.5226 33.102C87.6851 33.037 87.8609 33.0107 88.0356 33.0252H88.3912V33.6209H88.0356C87.6239 33.6209 87.4274 33.8933 87.4368 34.4383V34.7615H89.3081V34.4383C89.2878 34.068 89.395 33.7018 89.6122 33.3992C89.7282 33.2697 89.8731 33.1684 90.0354 33.1035C90.1978 33.0386 90.3732 33.0118 90.5478 33.0252H90.894Z" fill="#051128"/>
<path d="M93.9345 37.5509C93.6093 37.8518 93.1803 38.0193 92.7345 38.0193C92.2888 38.0193 91.8597 37.8518 91.5346 37.5509C91.2209 37.2269 91.0458 36.796 91.0458 36.3479C91.0458 35.8997 91.2209 35.4688 91.5346 35.1449C91.864 34.8506 92.2925 34.6876 92.7369 34.6876C93.1812 34.6876 93.6097 34.8506 93.9392 35.1449C94.0978 35.3007 94.2214 35.4877 94.302 35.6938C94.3826 35.8998 94.4183 36.1204 94.407 36.341C94.4186 36.5641 94.3825 36.7871 94.3011 36.9955C94.2197 37.2039 94.0948 37.3932 93.9345 37.5509ZM91.9743 37.1214C92.1252 37.272 92.3185 37.3742 92.5291 37.4146C92.7397 37.4551 92.9577 37.4319 93.1548 37.3481C93.3518 37.2643 93.5187 37.1238 93.6336 36.945C93.7484 36.7661 93.8061 36.5572 93.7988 36.3456C93.805 36.2049 93.7806 36.0646 93.7274 35.934C93.6741 35.8033 93.5932 35.6855 93.49 35.5882C93.2816 35.4042 93.0118 35.3025 92.7322 35.3025C92.4525 35.3025 92.1827 35.4042 91.9743 35.5882C91.8712 35.6855 91.7903 35.8033 91.737 35.934C91.6838 36.0646 91.6594 36.2049 91.6656 36.3456C91.6597 36.4889 91.6841 36.632 91.7373 36.7655C91.7904 36.8991 91.8711 37.0203 91.9743 37.1214Z" fill="#051128"/>
<path d="M95.8246 36.7889V37.9527H95.1977V34.7616H95.8246V35.4774C95.9836 34.9556 96.2924 34.6923 96.7274 34.6923C96.9229 34.6785 97.1182 34.7219 97.2888 34.817L97.1906 35.3943C97.044 35.3267 96.8846 35.2905 96.7228 35.2881C96.5834 35.2847 96.4462 35.3219 96.3281 35.395C96.21 35.4681 96.1162 35.5738 96.0585 35.6991C95.8916 36.0381 95.8112 36.4122 95.8246 36.7889Z" fill="#051128"/>
<path d="M100.334 37.9526V37.4585C100.224 37.6403 100.061 37.7852 99.8659 37.8741C99.6585 37.9719 99.4315 38.0223 99.2017 38.0219C98.9867 38.0263 98.773 37.9877 98.5736 37.9083C98.3742 37.8289 98.1932 37.7105 98.0415 37.5601C97.739 37.2305 97.5715 36.8018 97.5715 36.3571C97.5715 35.9124 97.739 35.4836 98.0415 35.1541C98.1932 35.0037 98.3742 34.8853 98.5736 34.8059C98.773 34.7265 98.9867 34.6879 99.2017 34.6923C99.4337 34.69 99.6635 34.7373 99.8753 34.8308C100.069 34.9171 100.232 35.0586 100.343 35.2372V33.0252H100.97V37.9526H100.334ZM100.011 37.1214C100.116 37.0216 100.199 36.9007 100.253 36.7669C100.307 36.6331 100.331 36.4894 100.324 36.3455C100.331 36.2022 100.306 36.0591 100.25 35.9266C100.194 35.7941 100.109 35.6754 100.002 35.579C99.795 35.3991 99.5286 35.3005 99.2531 35.3019C99.1138 35.2987 98.9753 35.3235 98.8461 35.375C98.7168 35.4264 98.5996 35.5033 98.5015 35.601C98.4034 35.6987 98.3266 35.8151 98.2756 35.9431C98.2247 36.0711 98.2007 36.2081 98.2052 36.3455C98.2011 36.4869 98.2259 36.6277 98.2782 36.7594C98.3304 36.8911 98.409 37.0111 98.5093 37.1121C98.6059 37.2097 98.7217 37.2867 98.8497 37.3384C98.9776 37.39 99.1149 37.4152 99.2531 37.4123C99.5346 37.4174 99.8069 37.3129 100.011 37.1214Z" fill="#051128"/>
<path d="M104.507 37.9526V37.4585C104.399 37.6415 104.235 37.7867 104.039 37.8741C103.832 37.9723 103.605 38.0228 103.375 38.0219C103.16 38.026 102.947 37.9873 102.747 37.9079C102.548 37.8286 102.367 37.7102 102.215 37.5601C101.909 37.2325 101.738 36.803 101.738 36.3571C101.738 35.9112 101.909 35.4817 102.215 35.1541C102.367 35.0044 102.548 34.8863 102.748 34.807C102.947 34.7277 103.16 34.6887 103.375 34.6923C103.606 34.6903 103.835 34.7392 104.044 34.8355C104.238 34.9187 104.402 35.059 104.512 35.2372V34.7754H105.134V37.9665L104.507 37.9526ZM104.507 36.3455C104.514 36.2022 104.489 36.0592 104.433 35.9266C104.377 35.7941 104.292 35.6754 104.184 35.579C103.978 35.3983 103.712 35.2996 103.436 35.3019C103.296 35.2967 103.156 35.3201 103.026 35.3708C102.895 35.4214 102.777 35.4982 102.678 35.5962C102.579 35.6943 102.502 35.8115 102.451 35.9404C102.401 36.0694 102.377 36.2073 102.383 36.3455C102.379 36.4869 102.404 36.6277 102.456 36.7594C102.509 36.8911 102.587 37.0111 102.687 37.1121C102.785 37.2094 102.902 37.2862 103.031 37.3378C103.159 37.3894 103.297 37.4147 103.436 37.4123C103.718 37.4179 103.991 37.3153 104.199 37.126C104.299 37.0255 104.378 36.9055 104.429 36.7736C104.481 36.6417 104.504 36.5007 104.498 36.3594L104.507 36.3455Z" fill="#051128"/>
<path d="M106.743 37.4585V37.9526H106.112V33.0252H106.743V35.2372C106.854 35.0581 107.017 34.9163 107.211 34.8308C107.515 34.7001 107.851 34.6605 108.177 34.7172C108.503 34.7739 108.805 34.9243 109.045 35.1495C109.351 35.4776 109.52 35.9069 109.52 36.3525C109.52 36.798 109.351 37.2274 109.045 37.5555C108.893 37.706 108.711 37.8245 108.51 37.9039C108.31 37.9832 108.096 38.0218 107.88 38.0173C107.652 38.0168 107.427 37.9663 107.221 37.8695C107.022 37.7854 106.855 37.6416 106.743 37.4585ZM106.743 36.3455C106.737 36.4901 106.762 36.6342 106.816 36.7687C106.87 36.9032 106.952 37.0249 107.057 37.126C107.264 37.3157 107.537 37.4184 107.819 37.4123C107.958 37.4152 108.095 37.39 108.223 37.3384C108.351 37.2867 108.467 37.2097 108.563 37.1121C108.663 37.0108 108.741 36.8907 108.792 36.759C108.844 36.6273 108.868 36.4866 108.863 36.3455C108.869 36.2081 108.846 36.071 108.795 35.9427C108.745 35.8144 108.669 35.6976 108.571 35.5997C108.473 35.5018 108.356 35.4249 108.227 35.3736C108.097 35.3224 107.959 35.298 107.819 35.3019C107.544 35.2987 107.277 35.3975 107.071 35.579C106.961 35.6769 106.875 35.7979 106.82 35.9329C106.764 36.068 106.739 36.2138 106.748 36.3594L106.743 36.3455Z" fill="#051128"/>
<path d="M110.285 33.8703C110.242 33.8357 110.208 33.7918 110.185 33.7422C110.163 33.6926 110.152 33.6384 110.154 33.584C110.153 33.5297 110.164 33.4759 110.187 33.4264C110.209 33.3769 110.243 33.333 110.285 33.2977C110.37 33.2249 110.478 33.1848 110.591 33.1848C110.704 33.1848 110.812 33.2249 110.897 33.2977C110.939 33.333 110.973 33.3769 110.995 33.4264C111.018 33.4759 111.029 33.5297 111.028 33.584C111.03 33.6384 111.019 33.6926 110.997 33.7422C110.974 33.7918 110.94 33.8357 110.897 33.8703C110.812 33.9431 110.704 33.9832 110.591 33.9832C110.478 33.9832 110.37 33.9431 110.285 33.8703ZM110.902 37.9526V34.7616H110.28V37.9526H110.902Z" fill="#051128"/>
<path d="M111.885 33.0252H112.516V37.9526H111.885V33.0252Z" fill="#051128"/>
<path d="M113.503 33.8703C113.462 33.835 113.428 33.7911 113.405 33.7416C113.383 33.6921 113.372 33.6383 113.372 33.584C113.373 33.5299 113.385 33.4765 113.407 33.4272C113.43 33.3778 113.462 33.3337 113.503 33.2977C113.588 33.2249 113.697 33.1848 113.81 33.1848C113.922 33.1848 114.031 33.2249 114.116 33.2977C114.158 33.333 114.191 33.3769 114.214 33.4264C114.237 33.4759 114.248 33.5297 114.247 33.584C114.249 33.6384 114.238 33.6926 114.215 33.7422C114.193 33.7918 114.159 33.8357 114.116 33.8703C114.031 33.9431 113.922 33.9832 113.81 33.9832C113.697 33.9832 113.588 33.9431 113.503 33.8703ZM114.121 37.9526V34.7616H113.499V37.9526H114.121Z" fill="#051128"/>
<path d="M115.978 34.7616H116.661V35.288H115.978V37.9526H115.346V35.288H114.752V34.7616H115.332V33.5563H115.964L115.978 34.7616Z" fill="#051128"/>
<path d="M118.177 39.5042H117.522L118.2 37.8556L116.904 34.7615H117.559L118.528 37.0705L119.496 34.7615H120.165L118.177 39.5042Z" fill="#051128"/>
<path d="M125.599 33.0213H129.145V33.6263H127.699V37.7317H127.049V33.6263H125.599V33.0213Z" fill="#051128"/>
<path d="M129.81 36.568V37.7317H129.183V34.5406H129.81V35.2565C129.969 34.7346 130.277 34.4714 130.712 34.4714C130.908 34.4576 131.103 34.5009 131.274 34.5961L131.176 35.1733C131.029 35.1057 130.87 35.0695 130.708 35.0671C130.568 35.0638 130.431 35.101 130.313 35.1741C130.195 35.2471 130.101 35.3529 130.043 35.4781C129.877 35.8171 129.796 36.1913 129.81 36.568Z" fill="#051128"/>
<path d="M134.048 36.2631V34.5406H134.675V37.7316H134.048V37.2698C133.956 37.4485 133.806 37.5916 133.622 37.6762C133.443 37.77 133.244 37.8191 133.042 37.8194C132.868 37.8312 132.693 37.8042 132.531 37.7402C132.369 37.6762 132.224 37.577 132.106 37.45C131.871 37.1519 131.758 36.778 131.788 36.4017V34.5545H132.415V36.3555C132.402 36.5784 132.468 36.7987 132.602 36.9789C132.665 37.054 132.744 37.1136 132.834 37.1529C132.925 37.1922 133.023 37.2101 133.121 37.2052C133.359 37.2142 133.592 37.1333 133.772 36.9789C133.87 36.8884 133.946 36.7768 133.994 36.6527C134.042 36.5286 134.06 36.3953 134.048 36.2631Z" fill="#051128"/>
<path d="M136.392 36.3232C136.132 36.2694 135.895 36.1408 135.709 35.9537C135.631 35.8617 135.575 35.7542 135.544 35.6386C135.512 35.523 135.506 35.4021 135.526 35.2841C135.54 35.1672 135.58 35.0546 135.642 34.9541C135.704 34.8536 135.788 34.7677 135.887 34.7023C136.11 34.5472 136.377 34.4663 136.649 34.4714C136.921 34.4626 137.188 34.5403 137.412 34.693C137.52 34.7721 137.608 34.8743 137.67 34.9918C137.733 35.1094 137.768 35.2393 137.772 35.3719H137.169C137.161 35.3187 137.142 35.2678 137.113 35.2224C137.084 35.177 137.045 35.1382 137 35.1087C136.9 35.0436 136.783 35.0098 136.663 35.0117C136.552 35.0102 136.442 35.0372 136.345 35.0902C136.304 35.1115 136.268 35.141 136.239 35.1767C136.21 35.2125 136.189 35.2538 136.177 35.298C136.145 35.3798 136.145 35.4701 136.177 35.552C136.22 35.6161 136.275 35.671 136.341 35.713C136.406 35.7551 136.479 35.7836 136.556 35.7967L137.023 35.9122C137.254 35.9362 137.468 36.0441 137.622 36.2147C137.777 36.3854 137.862 36.6067 137.861 36.8358C137.863 36.9716 137.831 37.1058 137.769 37.2266C137.706 37.3474 137.614 37.4511 137.501 37.5285C137.239 37.7091 136.926 37.8014 136.607 37.7917C136.308 37.7937 136.017 37.6942 135.784 37.51C135.666 37.424 135.57 37.3119 135.505 37.1828C135.439 37.0536 135.405 36.9111 135.405 36.7665H135.98C135.99 36.8434 136.019 36.9167 136.065 36.9797C136.11 37.0426 136.171 37.0932 136.242 37.1267C136.397 37.217 136.578 37.2559 136.757 37.2375C136.885 37.2332 137.008 37.1878 137.108 37.1082C137.15 37.0726 137.184 37.0288 137.208 36.9796C137.232 36.9303 137.246 36.8766 137.248 36.8219C137.253 36.7723 137.245 36.7224 137.225 36.6765C137.206 36.6306 137.175 36.5902 137.136 36.5587C137.041 36.4903 136.932 36.4416 136.818 36.4155L136.392 36.3232Z" fill="#051128"/>
<path d="M139.503 34.5406H140.186V35.0671H139.503V37.7317H138.871V35.0671H138.291V34.5406H138.871V33.3353H139.503V34.5406Z" fill="#051128"/>
</svg>
